<svg xmlns="http://www.w3.org/2000/svg" viewBox="-8705.25 1648 36.25 36"><defs><style>.a,.b,.c{fill:none}.a,.c{stroke:#9298a2;stroke-linecap:round;stroke-linejoin:round;stroke-miterlimit:10;stroke-width:2px}.c{stroke:#f3910f}</style></defs><path class="a" d="M-8690.75 1675.65a18.877 18.877 0 0 1-3.75-.654l-8.25 3.754 3-6.75a11.313 11.313 0 0 1-4.5-9c0-7.041 7-12.75 15.625-12.75s15.875 5.709 15.875 12.75a10.189 10.189 0 0 1-.11 1.5"/><path class="b" d="M-8705 1648h36v36h-36z"/><path class="c" d="M-8682 1666.75v2.25m3-2.25v2.25m-3 9v2.25m3-2.25v2.25m3-9a2.251 2.251 0 0 1-2.25 2.25h-5.25v-4.5h5.25a2.252 2.252 0 0 1 2.25 2.25zm0 4.5a2.251 2.251 0 0 1-2.25 2.25h-5.25v-4.5h5.25a2.252 2.252 0 0 1 2.25 2.25z"/></svg>