<?xml version="1.0" encoding="utf-8"?>
<!-- Generator: Adobe Illustrator 21.0.0, SVG Export Plug-In . SVG Version: 6.00 Build 0)  -->
<svg version="1.1" baseProfile="tiny" id="Layer_1" xmlns="http://www.w3.org/2000/svg" xmlns:xlink="http://www.w3.org/1999/xlink"
	 x="0px" y="0px" viewBox="0 0 50 50" xml:space="preserve">
<path fill="#DD4B39" d="M25,0C11.2,0,0,11.2,0,25c0,13.8,11.2,25,25,25c13.8,0,25-11.2,25-25C50,11.2,38.8,0,25,0z M28.2,32.2
	c-3.8,4.1-10.8,4.2-14.9,0.1c-4.1-4.1-4-10.7,0.1-14.7c4-3.9,10.3-4.2,14.4-0.5l-3,2.9h0c-2.2-2.5-6-1.9-8.3,0.4
	c-2.4,2.4-2.5,6.5-0.1,9c2.4,2.5,6.6,2.7,8.8,0.2c0.6-0.7,1-2.2,1.1-2.2h-4.9v-5h9.1C31.2,26.1,30.5,29.7,28.2,32.2z M40.2,26.1v2.5
	h-2.5v-2.5H34v-3.8h3.8v-3.8h2.5v3.8H44v3.8H40.2z"/>
</svg>
