<?xml version="1.0" encoding="utf-8"?>
<!-- Generator: Adobe Illustrator 21.0.0, SVG Export Plug-In . SVG Version: 6.00 Build 0)  -->
<svg version="1.1" id="Layer_1" xmlns="http://www.w3.org/2000/svg" xmlns:xlink="http://www.w3.org/1999/xlink" x="0px" y="0px"
	 viewBox="0 0 24 24" style="enable-background:new 0 0 24 24;" xml:space="preserve">
<style type="text/css">
	.st0{fill:#8D92A0;}
</style>
<g id="vk">
	<path id="vk_x5F_alt_1_" class="st0" d="M11.8,17.9H13c0,0,0.4,0,0.6-0.2c0.2-0.2,0.2-0.5,0.2-0.5s0-1.7,0.8-1.9
		c0.8-0.2,1.8,1.6,2.8,2.3c0.8,0.5,1.4,0.4,1.4,0.4l2.8,0c0,0,1.5-0.1,0.8-1.2c-0.1-0.1-0.4-0.9-2.1-2.4c-1.8-1.6-1.5-1.4,0.6-4.2
		c1.3-1.7,1.8-2.8,1.6-3.2c-0.2-0.4-1.1-0.3-1.1-0.3l-3.1,0c0,0-0.2,0-0.4,0.1C17.6,6.8,17.5,7,17.5,7S17,8.3,16.3,9.5
		c-1.4,2.4-2,2.5-2.2,2.4c-0.5-0.3-0.4-1.4-0.4-2.1c0-2.3,0.4-3.3-0.7-3.5C12.7,6.1,12.5,6,11.6,6C10.5,6,9.5,6,9,6.3
		C8.6,6.5,8.4,6.9,8.5,6.9c0.2,0,0.7,0.1,0.9,0.5c0.3,0.4,0.3,1.4,0.3,1.4s0.2,2.7-0.4,3c-0.4,0.2-1-0.2-2.3-2.4
		C6.4,8.3,6,7.1,6,7.1S5.9,6.9,5.7,6.8C5.5,6.6,5.2,6.6,5.2,6.6l-3,0c0,0-0.4,0-0.6,0.2c-0.1,0.2,0,0.5,0,0.5s2.3,5.5,5,8.2
		C9,18.1,11.8,17.9,11.8,17.9L11.8,17.9L11.8,17.9z"/>
</g>
<g id="facebook">
	<path id="facebook_1_" class="st0" d="M13.2,20v-7.3h2.4L16,9.9h-2.8V8.1c0-0.8,0.2-1.4,1.4-1.4l1.5,0V4.1C15.9,4.1,15,4,14,4
		c-2.2,0-3.6,1.3-3.6,3.8v2.1H7.9v2.8h2.5V20L13.2,20L13.2,20z"/>
</g>
<g id="twitter">
	<path id="twitter_1_" class="st0" d="M20.8,6.5c-0.6,0.3-1.4,0.5-2.1,0.6c0.7-0.4,1.3-1.2,1.6-2c-0.7,0.4-1.5,0.7-2.3,0.9
		c-0.7-0.7-1.6-1.1-2.6-1.1c-2,0-3.6,1.6-3.6,3.6c0,0.3,0,0.6,0.1,0.8c-3-0.2-5.7-1.6-7.5-3.8C4.1,6,3.9,6.6,3.9,7.3
		c0,1.3,0.6,2.4,1.6,3c-0.6,0-1.2-0.2-1.6-0.5c0,0,0,0,0,0c0,1.8,1.3,3.2,2.9,3.6c-0.3,0.1-0.6,0.1-1,0.1c-0.2,0-0.5,0-0.7-0.1
		C5.6,15,6.9,16,8.5,16.1c-1.2,1-2.8,1.6-4.5,1.6c-0.3,0-0.6,0-0.9-0.1c1.6,1,3.5,1.6,5.6,1.6c6.7,0,10.3-5.5,10.3-10.3
		c0-0.2,0-0.3,0-0.5C19.7,7.9,20.4,7.2,20.8,6.5z"/>
</g>
<g id="mail">
	<g>
		<path class="st0" d="M12.9,12l7.4-5.6C20.1,6,19.6,5.7,19,5.7H5c-0.6,0-1,0.3-1.3,0.8l7.4,5.6C11.6,12.4,12.4,12.4,12.9,12z"/>
		<path class="st0" d="M14,13.5c-0.5,0.4-1.2,0.6-2,0.6s-1.4-0.2-2-0.6l-6.6-5v8.3c0,0.8,0.7,1.5,1.5,1.5H19c0.8,0,1.5-0.7,1.5-1.5
			V8.5L14,13.5z"/>
	</g>
</g>
<g id="google">
	<path class="st0" d="M12.1,10.6v2.7h3.6c-0.1,0.6-0.3,1.1-0.7,1.5c-1.4,1.6-4.1,1.6-5.7,0c-1.5-1.6-1.5-4.1,0-5.7
		c1.5-1.5,3.9-1.6,5.3-0.1l0,0l2-2C14,4.6,10,4.7,7.4,7.2c-2.7,2.6-2.7,6.9-0.1,9.5c2.6,2.6,7.2,2.7,9.6,0c1.5-1.6,1.9-3.9,1.6-6.1
		H12.1z"/>
</g>
<g id="rss">
	<g>
		<path class="st0" d="M6.9,15.2c-0.5,0-1,0.2-1.4,0.6C5.2,16.1,5,16.6,5,17.1c0,0.5,0.2,1,0.6,1.4S6.4,19,6.9,19
			c0.5,0,1-0.2,1.4-0.6c0.4-0.4,0.6-0.8,0.6-1.4c0-0.5-0.2-1-0.6-1.4C7.9,15.4,7.4,15.2,6.9,15.2L6.9,15.2z"/>
		<path class="st0" d="M11.3,12.7c-0.7-0.8-1.6-1.4-2.6-1.8c-1-0.4-2-0.7-3-0.8H5.6c-0.2,0-0.3,0.1-0.4,0.2C5.1,10.4,5,10.5,5,10.7
			v1.3c0,0.2,0.1,0.3,0.2,0.4s0.2,0.2,0.4,0.2c1.5,0.1,2.8,0.8,3.9,1.8c1.1,1.1,1.7,2.4,1.8,3.9c0,0.2,0.1,0.3,0.2,0.4
			c0.1,0.1,0.3,0.2,0.4,0.2h1.3c0.2,0,0.3-0.1,0.5-0.2c0.1-0.1,0.2-0.3,0.2-0.5c-0.1-1.1-0.4-2.1-0.8-3
			C12.7,14.3,12.1,13.4,11.3,12.7L11.3,12.7z"/>
		<path class="st0" d="M17.8,13.3c-0.7-1.6-1.7-3-2.9-4.2c-1.2-1.2-2.6-2.2-4.2-2.9S7.4,5.1,5.7,5h0C5.5,5,5.3,5.1,5.2,5.2
			C5.1,5.3,5,5.5,5,5.6v1.4c0,0.2,0.1,0.3,0.2,0.4c0.1,0.1,0.3,0.2,0.4,0.2c1.4,0.1,2.8,0.4,4.1,1c1.3,0.6,2.4,1.4,3.3,2.3
			c0.9,0.9,1.7,2.1,2.3,3.3c0.6,1.3,0.9,2.6,1,4.1c0,0.2,0.1,0.3,0.2,0.4c0.1,0.1,0.3,0.2,0.4,0.2h1.4c0.2,0,0.3-0.1,0.5-0.2
			c0.1-0.1,0.2-0.3,0.2-0.5C18.9,16.6,18.5,14.9,17.8,13.3L17.8,13.3z"/>
	</g>
</g>
</svg>
