<svg xmlns="http://www.w3.org/2000/svg" viewBox="-8132.25 1649 36.5 36"><defs><style>.a,.b,.c,.d{fill:none}.a,.b{stroke:#9298a2}.a,.b,.d{stroke-linejoin:round;stroke-miterlimit:10;stroke-width:2px}.b,.d{stroke-linecap:round}.d{stroke:#f3910f}</style></defs><path class="a" d="M-8131.25 1669.25h6v12.063h-6z"/><path class="b" d="M-8125.25 1679c15.75 5.25 10.5 5.25 28.5-3.75-1.593-1.593-2.853-1.969-4.5-1.5l-6.651 2.207"/><path class="b" d="M-8125.25 1670.75h4.5a9.884 9.884 0 0 1 6.75 3h4.5c2.391 0 2.391 3 0 3h-8.25"/><path class="c" d="M-8132 1649h36v36h-36z"/><path class="d" d="M-8109 1651.75v2.25m3-2.25v2.25m-3 9v2.25m3-2.25v2.25m3-9a2.251 2.251 0 0 1-2.25 2.25h-5.25v-4.5h5.25a2.252 2.252 0 0 1 2.25 2.25zm0 4.5a2.251 2.251 0 0 1-2.25 2.25h-5.25v-4.5h5.25a2.252 2.252 0 0 1 2.25 2.25z"/></svg>