<?xml version="1.0" encoding="utf-8"?>
<!-- Generator: Adobe Illustrator 21.0.0, SVG Export Plug-In . SVG Version: 6.00 Build 0)  -->
<svg version="1.1" id="Layer_1" xmlns="http://www.w3.org/2000/svg" xmlns:xlink="http://www.w3.org/1999/xlink" x="0px" y="0px"
	 viewBox="0 0 20 20" style="enable-background:new 0 0 20 20;" xml:space="preserve">
<style type="text/css">
	.st0{enable-background:new    ;}
	.st1{fill:#BEC1C9;}
</style>
<g id="comment">
	<g class="st0">
		<g>
			<path class="st1" d="M15.4,4H4.6C3.7,4,3,4.7,3,5.6v7.4c0,0.9,0.7,1.6,1.6,1.6h0.8V18l4.4-3.3h5.5c0.9,0,1.6-0.7,1.6-1.6V5.6
				C17,4.7,16.3,4,15.4,4z"/>
		</g>
	</g>
</g>
<g id="like">
	<g>
		<g>
			<path class="st1" d="M13.1,3.8c-1.2,0-2.4,0.7-3.1,1.6c-0.7-1-1.9-1.6-3.1-1.6C4.7,3.8,3,5.5,3,7.7c0,4.3,6.3,8.3,6.6,8.4
				c0.1,0.1,0.3,0.1,0.4,0.1s0.3,0,0.4-0.1c0.3-0.2,6.6-4.2,6.6-8.4C17,5.5,15.3,3.8,13.1,3.8z"/>
		</g>
	</g>
</g>
<g id="human">
	<g>
		<path class="st1" d="M10,9.3C8.4,9.3,7.1,8,7.1,6.5c0-1.6,1.3-2.9,2.9-2.9c1.6,0,2.9,1.3,2.9,2.9C12.9,8,11.6,9.3,10,9.3"/>
		<path class="st1" d="M15.9,15.2c0-0.1,0-0.2,0-0.2c0-0.1-0.1-0.2-0.1-0.3c-0.5-1.9-1.9-3.5-3.7-4.1c-0.5,0.6-1.1,1-2.1,1
			s-1.5-0.4-2.1-1c-1.9,0.7-3.3,2.3-3.8,4.3c0,0,0,0.2,0,0.3c0,0.7,0.5,1.2,1.2,1.2l0,0h9.5l0,0C15.4,16.3,15.9,15.8,15.9,15.2z"/>
	</g>
</g>
<g id="clock">
	<path class="st1" d="M10,3.6c-3.5,0-6.4,2.9-6.4,6.4c0,3.5,2.9,6.4,6.4,6.4c3.5,0,6.4-2.9,6.4-6.4C16.4,6.5,13.5,3.6,10,3.6z
		 M13.3,10.7h-4v-0.2V9.3V5h1.4v4.2h2.6V10.7z"/>
</g>
<g id="eye">
	<g>
		<path class="st1" d="M10,4.1c-3.7,0-6.9,2.4-8.3,5.9c1.4,3.5,4.6,5.9,8.3,5.9s6.9-2.4,8.3-5.9C16.9,6.5,13.7,4.1,10,4.1z M10,14.6
			c-2.5,0-4.6-2-4.6-4.6s2-4.6,4.6-4.6s4.6,2,4.6,4.6S12.5,14.6,10,14.6z"/>
		<circle class="st1" cx="10" cy="10" r="2.5"/>
	</g>
</g>
</svg>
